<?xml version="1.0" encoding="UTF-8"?>
<svg width="1200pt" height="1200pt" version="1.1" viewBox="0 0 1200 1200" xmlns="http://www.w3.org/2000/svg">
 <g>
  <path d="m1069.5 842.33h-42.23v-552.49c0-6.6328-5.3711-12-12-12h-135.98v-62.168c0-6.6328-5.3711-12-12-12h-140.85v-71.672c0-6.6328-5.3711-12-12-12h-186.07c-6.6289 0-12 5.3672-12 12v71.672h-149.42v-71.672c0-6.6328-5.3711-12-12-12h-170.21c-6.6289 0-12 5.3672-12 12v710.33h-39.23c-6.6289 0-12 5.3672-12 12v105.89c0 6.6328 5.3711 12 12 12h60.305v95.777c0 6.6328 5.3711 12 12 12h91.5c6.6289 0 12-5.3672 12-12v-95.777h584.39v95.777c0 6.6328 5.3711 12 12 12h91.5c6.6289 0 12-5.3672 12-12v-95.777h60.305c6.6289 0 12-5.3672 12-12v-105.89c0-6.6328-5.3711-12-12-12zm-66.23-540.49v540.49h-123.98v-540.49zm-147.98-74.168v614.66h-128.85v-614.66zm-152.85-83.672v698.33h-162.07v-698.33zm-186.07 83.672v614.66h-149.42v-614.66zm-319.64-83.672h146.21v698.33h-146.21zm88.574 912h-67.5v-83.777h67.5zm699.89 0h-67.5v-83.777h67.5zm72.305-107.78h-912v-81.891h912z"/>
  <path d="m305 750.02h-68.625c-6.6289 0-12 5.3672-12 12 0 6.6328 5.3711 12 12 12h68.625c6.6289 0 12-5.3672 12-12 0-6.6328-5.3711-12-12-12z"/>
  <path d="m236.37 727.9h68.625c6.6289 0 12-5.3672 12-12 0-6.6328-5.3711-12-12-12h-68.625c-6.6289 0-12 5.3672-12 12 0 6.6328 5.375 12 12 12z"/>
  <path d="m962 750.02h-41.367c-6.6289 0-12 5.3672-12 12 0 6.6328 5.3711 12 12 12h41.367c6.6289 0 12-5.3672 12-12 0-6.6328-5.3711-12-12-12z"/>
  <path d="m920.63 727.9h41.367c6.6289 0 12-5.3672 12-12 0-6.6328-5.3711-12-12-12h-41.367c-6.6289 0-12 5.3672-12 12 0 6.6328 5.3711 12 12 12z"/>
  <path d="m814.86 750.02h-41.367c-6.6289 0-12 5.3672-12 12 0 6.6328 5.3711 12 12 12h41.367c6.6289 0 12-5.3672 12-12 0-6.6328-5.375-12-12-12z"/>
  <path d="m773.5 727.9h41.367c6.6289 0 12-5.3672 12-12 0-6.6328-5.3711-12-12-12h-41.367c-6.6289 0-12 5.3672-12 12 0 6.6328 5.3711 12 12 12z"/>
  <path d="m470 331.12h-56.695c-6.6289 0-12 5.3672-12 12s5.3711 12 12 12h56.695c6.6289 0 12-5.3672 12-12s-5.3711-12-12-12z"/>
  <path d="m413.31 309h56.695c6.6289 0 12-5.3672 12-12s-5.3711-12-12-12h-56.695c-6.6289 0-12 5.3672-12 12s5.3711 12 12 12z"/>
  <path d="m588 524h66.348c6.6289 0 12-5.3672 12-12v-296.33c0-6.6328-5.3711-12-12-12h-66.348c-6.6289 0-12 5.3672-12 12v296.33c0 6.6328 5.3711 12 12 12zm12-296.33h42.348v272.33h-42.348z"/>
 </g>
</svg>
